<svg width="512" height="512" viewBox="0 0 512 512" fill="none" xmlns="http://www.w3.org/2000/svg">
<g clip-path="url(#clip0_03_00)">
<path d="M217.6 22.1702C231.589 14.0935 238.584 10.0552 246.02 8.47454C252.6 7.07599 259.4 7.07599 265.98 8.47454C273.416 10.0552 280.411 14.0935 294.4 22.1702L439.303 105.83C453.292 113.906 460.286 117.945 465.373 123.595C469.874 128.593 473.275 134.483 475.353 140.88C477.703 148.11 477.703 156.187 477.703 172.34V339.66C477.703 355.813 477.703 363.89 475.353 371.12C473.275 377.517 469.874 383.407 465.373 388.405C460.286 394.055 453.292 398.094 439.303 406.17L294.4 489.83C280.411 497.906 273.416 501.945 265.98 503.525C259.4 504.924 252.6 504.924 246.02 503.525C238.584 501.945 231.589 497.906 217.6 489.83L72.6975 406.17C58.7082 398.094 51.7136 394.055 46.6265 388.405C42.1255 383.407 38.7254 377.517 36.6468 371.12C34.2975 363.89 34.2975 355.813 34.2975 339.66V172.34C34.2975 156.187 34.2975 148.11 36.6468 140.88C38.7254 134.483 42.1255 128.593 46.6265 123.595C51.7136 117.945 58.7082 113.906 72.6975 105.83L217.6 22.1702Z" fill="url(#paint0_linear_03_00)"/>
<path d="M217.6 22.1702C231.589 14.0935 238.584 10.0552 246.02 8.47454C252.6 7.07599 259.4 7.07599 265.98 8.47454C273.416 10.0552 280.411 14.0935 294.4 22.1702L439.303 105.83C453.292 113.906 460.286 117.945 465.373 123.595C469.874 128.593 473.275 134.483 475.353 140.88C477.703 148.11 477.703 156.187 477.703 172.34V339.66C477.703 355.813 477.703 363.89 475.353 371.12C473.275 377.517 469.874 383.407 465.373 388.405C460.286 394.055 453.292 398.094 439.303 406.17L294.4 489.83C280.411 497.906 273.416 501.945 265.98 503.525C259.4 504.924 252.6 504.924 246.02 503.525C238.584 501.945 231.589 497.906 217.6 489.83L72.6975 406.17C58.7082 398.094 51.7136 394.055 46.6265 388.405C42.1255 383.407 38.7254 377.517 36.6468 371.12C34.2975 363.89 34.2975 355.813 34.2975 339.66V172.34C34.2975 156.187 34.2975 148.11 36.6468 140.88C38.7254 134.483 42.1255 128.593 46.6265 123.595C51.7136 117.945 58.7082 113.906 72.6975 105.83L217.6 22.1702Z" fill="url(#paint1_linear_03_00)" style="mix-blend-mode:hard-light"/>
<path d="M217.6 22.1702C231.589 14.0935 238.584 10.0552 246.02 8.47454C252.6 7.07599 259.4 7.07599 265.98 8.47454C273.416 10.0552 280.411 14.0935 294.4 22.1702L439.303 105.83C453.292 113.906 460.286 117.945 465.373 123.595C469.874 128.593 473.275 134.483 475.353 140.88C477.703 148.11 477.703 156.187 477.703 172.34V339.66C477.703 355.813 477.703 363.89 475.353 371.12C473.275 377.517 469.874 383.407 465.373 388.405C460.286 394.055 453.292 398.094 439.303 406.17L294.4 489.83C280.411 497.906 273.416 501.945 265.98 503.525C259.4 504.924 252.6 504.924 246.02 503.525C238.584 501.945 231.589 497.906 217.6 489.83L72.6975 406.17C58.7082 398.094 51.7136 394.055 46.6265 388.405C42.1255 383.407 38.7254 377.517 36.6468 371.12C34.2975 363.89 34.2975 355.813 34.2975 339.66V172.34C34.2975 156.187 34.2975 148.11 36.6468 140.88C38.7254 134.483 42.1255 128.593 46.6265 123.595C51.7136 117.945 58.7082 113.906 72.6975 105.83L217.6 22.1702Z" fill="url(#paint2_linear_03_00)" style="mix-blend-mode:hard-light"/>
<path d="M217.6 22.1702C231.589 14.0935 238.584 10.0552 246.02 8.47454C252.6 7.07599 259.4 7.07599 265.98 8.47454C273.416 10.0552 280.411 14.0935 294.4 22.1702L439.303 105.83C453.292 113.906 460.286 117.945 465.373 123.595C469.874 128.593 473.275 134.483 475.353 140.88C477.703 148.11 477.703 156.187 477.703 172.34V339.66C477.703 355.813 477.703 363.89 475.353 371.12C473.275 377.517 469.874 383.407 465.373 388.405C460.286 394.055 453.292 398.094 439.303 406.17L294.4 489.83C280.411 497.906 273.416 501.945 265.98 503.525C259.4 504.924 252.6 504.924 246.02 503.525C238.584 501.945 231.589 497.906 217.6 489.83L72.6975 406.17C58.7082 398.094 51.7136 394.055 46.6265 388.405C42.1255 383.407 38.7254 377.517 36.6468 371.12C34.2975 363.89 34.2975 355.813 34.2975 339.66V172.34C34.2975 156.187 34.2975 148.11 36.6468 140.88C38.7254 134.483 42.1255 128.593 46.6265 123.595C51.7136 117.945 58.7082 113.906 72.6975 105.83L217.6 22.1702Z" fill="url(#paint3_linear_03_00)" style="mix-blend-mode:luminosity"/>
<path d="M217.6 22.1702C231.589 14.0935 238.584 10.0552 246.02 8.47454C252.6 7.07599 259.4 7.07599 265.98 8.47454C273.416 10.0552 280.411 14.0935 294.4 22.1702L439.303 105.83C453.292 113.906 460.286 117.945 465.373 123.595C469.874 128.593 473.275 134.483 475.353 140.88C477.703 148.11 477.703 156.187 477.703 172.34V339.66C477.703 355.813 477.703 363.89 475.353 371.12C473.275 377.517 469.874 383.407 465.373 388.405C460.286 394.055 453.292 398.094 439.303 406.17L294.4 489.83C280.411 497.906 273.416 501.945 265.98 503.525C259.4 504.924 252.6 504.924 246.02 503.525C238.584 501.945 231.589 497.906 217.6 489.83L72.6975 406.17C58.7082 398.094 51.7136 394.055 46.6265 388.405C42.1255 383.407 38.7254 377.517 36.6468 371.12C34.2975 363.89 34.2975 355.813 34.2975 339.66V172.34C34.2975 156.187 34.2975 148.11 36.6468 140.88C38.7254 134.483 42.1255 128.593 46.6265 123.595C51.7136 117.945 58.7082 113.906 72.6975 105.83L217.6 22.1702Z" fill="url(#paint4_linear_03_00)" style="mix-blend-mode:saturation"/>
</g>
<defs>
<linearGradient id="paint0_linear_03_00" x1="256" y1="0" x2="256" y2="512" gradientUnits="userSpaceOnUse">
<stop stop-color="#A1A1AA"/>
<stop offset="1" stop-color="#D4D4D8"/>
</linearGradient>
<linearGradient id="paint1_linear_03_00" x1="256" y1="0" x2="256" y2="512" gradientUnits="userSpaceOnUse">
<stop stop-color="#F43F5E"/>
<stop offset="1" stop-color="#EF4444"/>
</linearGradient>
<linearGradient id="paint2_linear_03_00" x1="187.378" y1="8.88578e-06" x2="324.622" y2="512" gradientUnits="userSpaceOnUse">
<stop stop-color="#22D3EE"/>
<stop offset="1" stop-color="#3B82F6"/>
</linearGradient>
<linearGradient id="paint3_linear_03_00" x1="224.608" y1="-1.88843e-06" x2="287.392" y2="512" gradientUnits="userSpaceOnUse">
<stop stop-color="#A3E635"/>
<stop offset="1" stop-color="#10B981"/>
</linearGradient>
<linearGradient id="paint4_linear_03_00" x1="256" y1="0" x2="256" y2="512" gradientUnits="userSpaceOnUse">
<stop stop-color="#FB923C"/>
<stop offset="1" stop-color="#FACC15"/>
</linearGradient>
<clipPath id="clip0_03_00">
<rect width="512" height="512" fill="white"/>
</clipPath>
</defs>
</svg>
