<svg width="640" height="640" viewBox="0 0 640 640" fill="none" xmlns="http://www.w3.org/2000/svg">
<path fill-rule="evenodd" clip-rule="evenodd" d="M273.487 177L298.082 219.6C305.358 232.201 308.996 238.502 313.745 240.617C317.887 242.461 322.618 242.461 326.76 240.617C331.51 238.502 335.147 232.201 342.423 219.6L367.018 177L495.104 398.851H445.593C431.042 398.851 423.767 398.851 419.561 401.907C415.892 404.572 413.527 408.669 413.053 413.179C412.51 418.349 416.147 424.65 423.423 437.251L448.104 480H192.104L216.785 437.251C224.06 424.65 227.698 418.349 227.155 413.179C226.681 408.669 224.316 404.572 220.647 401.907C216.441 398.851 209.166 398.851 194.615 398.851H145.401L273.487 177ZM145.401 398.851H61.5932C47.0422 398.851 39.7668 398.851 35.5609 401.907C31.8924 404.572 29.5271 408.669 29.0531 413.179C28.5097 418.349 32.1474 424.65 39.4229 437.251L105.934 552.451C113.209 565.053 116.847 571.354 121.596 573.468C125.739 575.312 130.469 575.312 134.612 573.468C139.361 571.354 142.999 565.053 150.274 552.451L192.104 480H142.891C128.34 480 121.064 480 116.858 476.944C113.19 474.279 110.825 470.182 110.351 465.672C109.807 460.502 113.445 454.201 120.72 441.6L145.401 398.851ZM448.104 480H497.615C512.166 480 519.441 480 523.647 476.944C527.315 474.279 529.681 470.182 530.155 465.672C530.698 460.502 527.06 454.201 519.785 441.6L495.104 398.851H578.615C593.166 398.851 600.441 398.851 604.647 401.907C608.315 404.572 610.681 408.669 611.155 413.179C611.698 418.349 608.06 424.65 600.785 437.251L534.274 552.451C526.999 565.053 523.361 571.354 518.612 573.468C514.469 575.312 509.739 575.312 505.596 573.468C500.847 571.354 497.209 565.053 489.934 552.451L448.104 480ZM273.487 177L231.572 104.4C224.296 91.7985 220.658 85.4978 221.202 80.3275C221.676 75.8178 224.041 71.7211 227.71 69.0557C231.915 66 239.191 66 253.742 66H386.763C401.314 66 408.59 66 412.796 69.0557C416.464 71.7211 418.829 75.8178 419.303 80.3275C419.847 85.4978 416.209 91.7985 408.934 104.4L367.018 177L342.423 134.4C335.147 121.799 331.51 115.498 326.76 113.383C322.618 111.539 317.887 111.539 313.745 113.383C308.996 115.498 305.358 121.799 298.082 134.4L273.487 177Z" fill="url(#paint0_linear_26_2)"/>
<path fill-rule="evenodd" clip-rule="evenodd" d="M273.487 177L298.082 219.6C305.358 232.201 308.996 238.502 313.745 240.617C317.887 242.461 322.618 242.461 326.76 240.617C331.51 238.502 335.147 232.201 342.423 219.6L367.018 177L495.104 398.851H445.593C431.042 398.851 423.767 398.851 419.561 401.907C415.892 404.572 413.527 408.669 413.053 413.179C412.51 418.349 416.147 424.65 423.423 437.251L448.104 480H192.104L216.785 437.251C224.06 424.65 227.698 418.349 227.155 413.179C226.681 408.669 224.316 404.572 220.647 401.907C216.441 398.851 209.166 398.851 194.615 398.851H145.401L273.487 177ZM145.401 398.851H61.5932C47.0422 398.851 39.7668 398.851 35.5609 401.907C31.8924 404.572 29.5271 408.669 29.0531 413.179C28.5097 418.349 32.1474 424.65 39.4229 437.251L105.934 552.451C113.209 565.053 116.847 571.354 121.596 573.468C125.739 575.312 130.469 575.312 134.612 573.468C139.361 571.354 142.999 565.053 150.274 552.451L192.104 480H142.891C128.34 480 121.064 480 116.858 476.944C113.19 474.279 110.825 470.182 110.351 465.672C109.807 460.502 113.445 454.201 120.72 441.6L145.401 398.851ZM448.104 480H497.615C512.166 480 519.441 480 523.647 476.944C527.315 474.279 529.681 470.182 530.155 465.672C530.698 460.502 527.06 454.201 519.785 441.6L495.104 398.851H578.615C593.166 398.851 600.441 398.851 604.647 401.907C608.315 404.572 610.681 408.669 611.155 413.179C611.698 418.349 608.06 424.65 600.785 437.251L534.274 552.451C526.999 565.053 523.361 571.354 518.612 573.468C514.469 575.312 509.739 575.312 505.596 573.468C500.847 571.354 497.209 565.053 489.934 552.451L448.104 480ZM273.487 177L231.572 104.4C224.296 91.7985 220.658 85.4978 221.202 80.3275C221.676 75.8178 224.041 71.7211 227.71 69.0557C231.915 66 239.191 66 253.742 66H386.763C401.314 66 408.59 66 412.796 69.0557C416.464 71.7211 418.829 75.8178 419.303 80.3275C419.847 85.4978 416.209 91.7985 408.934 104.4L367.018 177L342.423 134.4C335.147 121.799 331.51 115.498 326.76 113.383C322.618 111.539 317.887 111.539 313.745 113.383C308.996 115.498 305.358 121.799 298.082 134.4L273.487 177Z" fill="url(#paint1_linear_26_2)" style="mix-blend-mode:hard-light"/>
<path fill-rule="evenodd" clip-rule="evenodd" d="M273.487 177L298.082 219.6C305.358 232.201 308.996 238.502 313.745 240.617C317.887 242.461 322.618 242.461 326.76 240.617C331.51 238.502 335.147 232.201 342.423 219.6L367.018 177L495.104 398.851H445.593C431.042 398.851 423.767 398.851 419.561 401.907C415.892 404.572 413.527 408.669 413.053 413.179C412.51 418.349 416.147 424.65 423.423 437.251L448.104 480H192.104L216.785 437.251C224.06 424.65 227.698 418.349 227.155 413.179C226.681 408.669 224.316 404.572 220.647 401.907C216.441 398.851 209.166 398.851 194.615 398.851H145.401L273.487 177ZM145.401 398.851H61.5932C47.0422 398.851 39.7668 398.851 35.5609 401.907C31.8924 404.572 29.5271 408.669 29.0531 413.179C28.5097 418.349 32.1474 424.65 39.4229 437.251L105.934 552.451C113.209 565.053 116.847 571.354 121.596 573.468C125.739 575.312 130.469 575.312 134.612 573.468C139.361 571.354 142.999 565.053 150.274 552.451L192.104 480H142.891C128.34 480 121.064 480 116.858 476.944C113.19 474.279 110.825 470.182 110.351 465.672C109.807 460.502 113.445 454.201 120.72 441.6L145.401 398.851ZM448.104 480H497.615C512.166 480 519.441 480 523.647 476.944C527.315 474.279 529.681 470.182 530.155 465.672C530.698 460.502 527.06 454.201 519.785 441.6L495.104 398.851H578.615C593.166 398.851 600.441 398.851 604.647 401.907C608.315 404.572 610.681 408.669 611.155 413.179C611.698 418.349 608.06 424.65 600.785 437.251L534.274 552.451C526.999 565.053 523.361 571.354 518.612 573.468C514.469 575.312 509.739 575.312 505.596 573.468C500.847 571.354 497.209 565.053 489.934 552.451L448.104 480ZM273.487 177L231.572 104.4C224.296 91.7985 220.658 85.4978 221.202 80.3275C221.676 75.8178 224.041 71.7211 227.71 69.0557C231.915 66 239.191 66 253.742 66H386.763C401.314 66 408.59 66 412.796 69.0557C416.464 71.7211 418.829 75.8178 419.303 80.3275C419.847 85.4978 416.209 91.7985 408.934 104.4L367.018 177L342.423 134.4C335.147 121.799 331.51 115.498 326.76 113.383C322.618 111.539 317.887 111.539 313.745 113.383C308.996 115.498 305.358 121.799 298.082 134.4L273.487 177Z" fill="url(#paint2_linear_26_2)" style="mix-blend-mode:hard-light"/>
<path fill-rule="evenodd" clip-rule="evenodd" d="M273.487 177L298.082 219.6C305.358 232.201 308.996 238.502 313.745 240.617C317.887 242.461 322.618 242.461 326.76 240.617C331.51 238.502 335.147 232.201 342.423 219.6L367.018 177L495.104 398.851H445.593C431.042 398.851 423.767 398.851 419.561 401.907C415.892 404.572 413.527 408.669 413.053 413.179C412.51 418.349 416.147 424.65 423.423 437.251L448.104 480H192.104L216.785 437.251C224.06 424.65 227.698 418.349 227.155 413.179C226.681 408.669 224.316 404.572 220.647 401.907C216.441 398.851 209.166 398.851 194.615 398.851H145.401L273.487 177ZM145.401 398.851H61.5932C47.0422 398.851 39.7668 398.851 35.5609 401.907C31.8924 404.572 29.5271 408.669 29.0531 413.179C28.5097 418.349 32.1474 424.65 39.4229 437.251L105.934 552.451C113.209 565.053 116.847 571.354 121.596 573.468C125.739 575.312 130.469 575.312 134.612 573.468C139.361 571.354 142.999 565.053 150.274 552.451L192.104 480H142.891C128.34 480 121.064 480 116.858 476.944C113.19 474.279 110.825 470.182 110.351 465.672C109.807 460.502 113.445 454.201 120.72 441.6L145.401 398.851ZM448.104 480H497.615C512.166 480 519.441 480 523.647 476.944C527.315 474.279 529.681 470.182 530.155 465.672C530.698 460.502 527.06 454.201 519.785 441.6L495.104 398.851H578.615C593.166 398.851 600.441 398.851 604.647 401.907C608.315 404.572 610.681 408.669 611.155 413.179C611.698 418.349 608.06 424.65 600.785 437.251L534.274 552.451C526.999 565.053 523.361 571.354 518.612 573.468C514.469 575.312 509.739 575.312 505.596 573.468C500.847 571.354 497.209 565.053 489.934 552.451L448.104 480ZM273.487 177L231.572 104.4C224.296 91.7985 220.658 85.4978 221.202 80.3275C221.676 75.8178 224.041 71.7211 227.71 69.0557C231.915 66 239.191 66 253.742 66H386.763C401.314 66 408.59 66 412.796 69.0557C416.464 71.7211 418.829 75.8178 419.303 80.3275C419.847 85.4978 416.209 91.7985 408.934 104.4L367.018 177L342.423 134.4C335.147 121.799 331.51 115.498 326.76 113.383C322.618 111.539 317.887 111.539 313.745 113.383C308.996 115.498 305.358 121.799 298.082 134.4L273.487 177Z" fill="url(#paint3_linear_26_2)" style="mix-blend-mode:luminosity"/>
<path fill-rule="evenodd" clip-rule="evenodd" d="M273.487 177L298.082 219.6C305.358 232.201 308.996 238.502 313.745 240.617C317.887 242.461 322.618 242.461 326.76 240.617C331.51 238.502 335.147 232.201 342.423 219.6L367.018 177L495.104 398.851H445.593C431.042 398.851 423.767 398.851 419.561 401.907C415.892 404.572 413.527 408.669 413.053 413.179C412.51 418.349 416.147 424.65 423.423 437.251L448.104 480H192.104L216.785 437.251C224.06 424.65 227.698 418.349 227.155 413.179C226.681 408.669 224.316 404.572 220.647 401.907C216.441 398.851 209.166 398.851 194.615 398.851H145.401L273.487 177ZM145.401 398.851H61.5932C47.0422 398.851 39.7668 398.851 35.5609 401.907C31.8924 404.572 29.5271 408.669 29.0531 413.179C28.5097 418.349 32.1474 424.65 39.4229 437.251L105.934 552.451C113.209 565.053 116.847 571.354 121.596 573.468C125.739 575.312 130.469 575.312 134.612 573.468C139.361 571.354 142.999 565.053 150.274 552.451L192.104 480H142.891C128.34 480 121.064 480 116.858 476.944C113.19 474.279 110.825 470.182 110.351 465.672C109.807 460.502 113.445 454.201 120.72 441.6L145.401 398.851ZM448.104 480H497.615C512.166 480 519.441 480 523.647 476.944C527.315 474.279 529.681 470.182 530.155 465.672C530.698 460.502 527.06 454.201 519.785 441.6L495.104 398.851H578.615C593.166 398.851 600.441 398.851 604.647 401.907C608.315 404.572 610.681 408.669 611.155 413.179C611.698 418.349 608.06 424.65 600.785 437.251L534.274 552.451C526.999 565.053 523.361 571.354 518.612 573.468C514.469 575.312 509.739 575.312 505.596 573.468C500.847 571.354 497.209 565.053 489.934 552.451L448.104 480ZM273.487 177L231.572 104.4C224.296 91.7985 220.658 85.4978 221.202 80.3275C221.676 75.8178 224.041 71.7211 227.71 69.0557C231.915 66 239.191 66 253.742 66H386.763C401.314 66 408.59 66 412.796 69.0557C416.464 71.7211 418.829 75.8178 419.303 80.3275C419.847 85.4978 416.209 91.7985 408.934 104.4L367.018 177L342.423 134.4C335.147 121.799 331.51 115.498 326.76 113.383C322.618 111.539 317.887 111.539 313.745 113.383C308.996 115.498 305.358 121.799 298.082 134.4L273.487 177Z" fill="url(#paint4_linear_26_2)" style="mix-blend-mode:saturation"/>
<defs>
<linearGradient id="paint0_linear_26_2" x1="611" y1="575" x2="29" y2="66" gradientUnits="userSpaceOnUse">
<stop stop-color="#A1A1AA"/>
<stop offset="1" stop-color="#D4D4D8"/>
</linearGradient>
<linearGradient id="paint1_linear_26_2" x1="209" y1="66" x2="431" y2="66" gradientUnits="userSpaceOnUse">
<stop stop-color="#F43F5E"/>
<stop offset="1" stop-color="#EF4444"/>
</linearGradient>
<linearGradient id="paint2_linear_26_2" x1="623" y1="399" x2="512" y2="591" gradientUnits="userSpaceOnUse">
<stop stop-color="#22D3EE"/>
<stop offset="1" stop-color="#3B82F6"/>
</linearGradient>
<linearGradient id="paint3_linear_26_2" x1="17" y1="399" x2="128" y2="591" gradientUnits="userSpaceOnUse">
<stop stop-color="#A3E635"/>
<stop offset="1" stop-color="#10B981"/>
</linearGradient>
<linearGradient id="paint4_linear_26_2" x1="320" y1="258" x2="320" y2="480" gradientUnits="userSpaceOnUse">
<stop stop-color="#FB923C"/>
<stop offset="1" stop-color="#FACC15"/>
</linearGradient>
</defs>
</svg>
